<svg xmlns="http://www.w3.org/2000/svg" width="87" height="87" viewBox="0 0 87 87">
  <g id="그룹_122" data-name="그룹 122" transform="translate(2054 277)">
    <circle id="타원_7" data-name="타원 7" cx="43.5" cy="43.5" r="43.5" transform="translate(-2054 -277)" fill="#53b7ef"/>
    <path id="users-solid" d="M8.719,49.438a5.813,5.813,0,1,0-5.813-5.813A5.818,5.818,0,0,0,8.719,49.438Zm40.69,0A5.813,5.813,0,1,0,43.6,43.626,5.818,5.818,0,0,0,49.409,49.438Zm2.906,2.906H46.5a5.8,5.8,0,0,0-4.1,1.689,13.285,13.285,0,0,1,6.821,9.936h5.994a2.9,2.9,0,0,0,2.906-2.906V58.158A5.818,5.818,0,0,0,52.315,52.345Zm-23.251,0A10.172,10.172,0,1,0,18.892,42.172,10.167,10.167,0,0,0,29.064,52.345Zm6.975,2.906h-.754a14.045,14.045,0,0,1-12.443,0h-.754A10.466,10.466,0,0,0,11.626,65.714V68.33a4.361,4.361,0,0,0,4.36,4.36H42.143a4.361,4.361,0,0,0,4.36-4.36V65.714A10.466,10.466,0,0,0,36.039,55.251ZM15.722,54.034a5.8,5.8,0,0,0-4.1-1.689H5.813A5.818,5.818,0,0,0,0,58.158v2.906A2.9,2.9,0,0,0,2.906,63.97H8.892a13.319,13.319,0,0,1,6.83-9.936Z" transform="translate(-2039.564 -285.845)" fill="#fff"/>
  </g>
</svg>
