<svg xmlns="http://www.w3.org/2000/svg" xmlns:xlink="http://www.w3.org/1999/xlink" width="542" height="542" viewBox="0 0 542 542">
  <defs>
    <clipPath id="clip-path">
      <rect id="사각형_20" data-name="사각형 20" width="542" height="542" transform="translate(5984 -592)" fill="#fff" stroke="#707070" stroke-width="1" opacity="0.5"/>
    </clipPath>
  </defs>
  <g id="마스크_그룹_5" data-name="마스크 그룹 5" transform="translate(-5984 592)" clip-path="url(#clip-path)">
    <g id="old-man-from-frontal-view-with-a-cane-svgrepo-com" transform="translate(6073.578 -592)">
      <g id="그룹_16" data-name="그룹 16" transform="translate(26.724 0)">
        <circle id="타원_3" data-name="타원 3" cx="59.562" cy="59.562" r="59.562" transform="translate(125.087)" fill="#27c4ba"/>
        <path id="패스_7" data-name="패스 7" d="M335.872,184.435c-12.839-87.55-31.827-128.625-75.6-159.276a67.927,67.927,0,0,1-48.891,20.768A67.929,67.929,0,0,1,161.8,24.406C145.6,38,133.188,56.5,122.06,73.262,109.282,92.5,96.07,112.4,84,113.423a23.111,23.111,0,0,0-3.717.648A42.268,42.268,0,0,0,26.724,154.95a11.566,11.566,0,0,0,23.131,0,19.25,19.25,0,0,1,13-18.144c.009.535.009,1.066.057,1.606a23.121,23.121,0,0,0,23.014,21.168c.657,0,1.314-.022,1.985-.083.174-.013.335-.052.5-.07V448.622a11.568,11.568,0,1,0,23.136,0V154.946c0-.836-.078-1.654-.126-2.472,15.206-8.108,27.157-22.048,37.711-36.827v74.786a46.958,46.958,0,0,0,3,16.616c-4.291,18.9-20.994,93.8-21.86,119.068l-1.188,34.39c-2.468,71.069-2.468,71.421-2.468,72.353a27.326,27.326,0,0,0,54.649.474c.083-3.046,1.445-42.245,2.441-70.943L184.895,328c.435-12.738,8.3-52.677,15.437-85.766a66.753,66.753,0,0,0,22.152-.392c7.15,33.145,15.08,73.367,15.515,86.158l1.184,34.394c1,28.7,2.363,67.9,2.446,70.943a27.326,27.326,0,0,0,54.649-.474c0-.931,0-1.284-2.468-72.353l-1.188-34.39c-.9-26.112-18.688-105.163-22.239-120.752a29.473,29.473,0,0,0-.875-2.985,47.243,47.243,0,0,0,1.545-11.959V110.786c7.4,18.466,13.7,43.843,19.058,80.361a23.129,23.129,0,0,0,22.848,19.771,23.464,23.464,0,0,0,3.386-.252A23.116,23.116,0,0,0,335.872,184.435Z" transform="translate(-26.724 81.81)" fill="#27c4ba"/>
      </g>
    </g>
  </g>
</svg>
