<svg xmlns="http://www.w3.org/2000/svg" xmlns:xlink="http://www.w3.org/1999/xlink" width="232" height="232" viewBox="0 0 232 232">
  <defs>
    <clipPath id="clip-path">
      <rect id="사각형_1" data-name="사각형 1" width="232" height="232" transform="translate(613 775)" fill="#fff" stroke="#707070" stroke-width="1"/>
    </clipPath>
  </defs>
  <g id="마스크_그룹_1" data-name="마스크 그룹 1" transform="translate(-613 -775)" clip-path="url(#clip-path)">
    <path id="volume-high-solid" d="M149.492,83.8a8.692,8.692,0,0,0-11.005,13.457,16.708,16.708,0,0,1-.013,26.372,8.692,8.692,0,0,0,11.005,13.458,33.621,33.621,0,0,0,12.839-26.8C162.318,99.594,157.644,90.464,149.492,83.8Zm21.92-26.739a8.69,8.69,0,1,0-11.028,13.435,51.075,51.075,0,0,1,19.325,39.79c0,15.145-7.043,29.746-19.315,40.109a8.69,8.69,0,0,0,11.028,13.435A68.133,68.133,0,0,0,197.1,110.283C197.1,89.3,187.753,70.392,171.412,57.058Zm22.21-27.1A8.69,8.69,0,1,0,182.6,43.392a86.414,86.414,0,0,1-.009,134.1,8.679,8.679,0,0,0-1.212,12.225,8.08,8.08,0,0,0,6.741,3.5,8.676,8.676,0,0,0,5.514-1.968,104.08,104.08,0,0,0,38.254-80.967A102.771,102.771,0,0,0,193.623,29.957Zm-84.492.572a11.623,11.623,0,0,0-12.475,1.917l-48.9,43.417H17.391A17.386,17.386,0,0,0,0,93.239v34.754A17.386,17.386,0,0,0,17.391,145.37H47.768l48.877,43.406a11.605,11.605,0,0,0,12.471,1.893,11.526,11.526,0,0,0,6.826-10.531V41.087A11.542,11.542,0,0,0,109.13,30.529Z" transform="translate(613 780.377)" fill="#27c4ba"/>
  </g>
</svg>
