<svg xmlns="http://www.w3.org/2000/svg" xmlns:xlink="http://www.w3.org/1999/xlink" width="461" height="461" viewBox="0 0 461 461">
  <defs>
    <clipPath id="clip-path">
      <rect id="사각형_2" data-name="사각형 2" width="461" height="461" transform="translate(2670 -145)" fill="#fff" stroke="#707070" stroke-width="1"/>
    </clipPath>
  </defs>
  <g id="마스크_그룹_3" data-name="마스크 그룹 3" transform="translate(-2670 145)" clip-path="url(#clip-path)">
    <g id="brain-and-head-svgrepo-com" transform="translate(2666.117 -145)">
      <path id="패스_1" data-name="패스 1" d="M412.7,177.412c-5.007-57.852-39.251-111.2-87.223-143.16C299.185,16.739,268.726,5.99,237.462,1.924,151.293-9.284,60.541,28.564,28.033,113.2c-27.945,72.763-.392,145,49.65,200.092,18.059,19.881,20.563,57.261,20.563,82.442V446.8a14.2,14.2,0,0,0,14.2,14.2H297.219a14.207,14.207,0,0,0,14.166-13.265c.68-10.045,1.8-18.878,1.8-18.878,3.863-16.569,17.991-29.855,48.034-25.032,31.52,5.057,51.4-4.336,53.169-25.323.583-6.923.959-66.058.959-66.058,1.506-.86,11.387-2.825,25.789-6.1a14.539,14.539,0,0,0,6.978-24.527c-32.744-32.391-37.135-47.491-37.948-50.742C406.108,214.928,414.166,194.38,412.7,177.412Zm-61.029-19.333c-4.549,5.763-9.731,6.889-12.471,7.04a1.4,1.4,0,0,0-1.285,1.778c1.407,4.958,2.838,18.614-21.609,23.931-22.928,4.983-36.793,22.816-45.846,31.873-6.955,6.949-16.363,10.165-25.749,12.278-9.588,2.157-19.089,4.045-26.654,10.858-7.967,7.176-19.2,46.691-21.112,53.56a1.391,1.391,0,0,1-1.343,1.018H183.833a1.4,1.4,0,0,1-1.369-1.11l-5.7-26.969c-.24-1.133-55.514,3.415-59.77-21.257a1.4,1.4,0,0,0-1.85-1.1c-5.315,1.918-22.366,6.636-31.569-7.625a28.256,28.256,0,0,1-3.883-22.81,1.39,1.39,0,0,0-.795-1.654c-4.689-2.017-21.633-11.517-19.336-42.774,1.854-25.2,18.9-36.362,16.513-40.237-6.873-11.176-.9-29.7,13.182-33.838a1.443,1.443,0,0,0,1.024-1.258l.594-6.568c1.955-23.158,32.384-37.834,53.071-28.206a1.456,1.456,0,0,0,2.011-.862c2.59-8.209,7.817-10.469,9.209-11.252,6.414-3.609,14.743-3.163,21.373-.441a1.386,1.386,0,0,0,1.543-.337c1.884-2.018,9.609-8.423,22.4-8.423a32.347,32.347,0,0,1,22.124,8.162,1.4,1.4,0,0,0,1.485.142c2.952-1.51,13.731-6.336,24.522-2.618,8.149,2.811,12.775,10.228,14.231,12.927a1.44,1.44,0,0,0,1.6.721c3.87-.917,17.251-3.487,28.494,1.59,11.881,5.371,15.587,13.132,16.533,15.734a1.385,1.385,0,0,0,1.252.907c2.576.1,9.686.726,14.079,4.419,7.759,6.523,7,11.667,6.107,13.868a1.384,1.384,0,0,0,.679,1.757,44.819,44.819,0,0,1,19.64,19.669C359.716,137.761,356.322,152.183,351.668,158.079Z" transform="translate(0 0)" fill="#27c4ba"/>
    </g>
  </g>
</svg>
