<svg xmlns="http://www.w3.org/2000/svg" width="21.663" height="24.758" viewBox="0 0 21.663 24.758">
  <path id="calendar-regular" d="M19.342,3.095H17.021V.58a.582.582,0,0,0-.58-.58H14.506a.582.582,0,0,0-.58.58V3.095H7.737V.58A.582.582,0,0,0,7.156,0H5.222a.582.582,0,0,0-.58.58V3.095H2.321A2.322,2.322,0,0,0,0,5.416V22.437a2.322,2.322,0,0,0,2.321,2.321H19.342a2.322,2.322,0,0,0,2.321-2.321V5.416A2.322,2.322,0,0,0,19.342,3.095Zm-.29,19.342H2.611a.291.291,0,0,1-.29-.29V7.737H19.342v14.41A.291.291,0,0,1,19.052,22.437Z" fill="#788390"/>
</svg>
