<svg xmlns="http://www.w3.org/2000/svg" width="34.126" height="26.538" viewBox="0 0 34.126 26.538">
  <path id="home-solid" d="M16.6,38.935l-10.922,9V57.64a.948.948,0,0,0,.948.948l6.639-.017a.948.948,0,0,0,.943-.948v-5.67A.948.948,0,0,1,15.15,51h3.792a.948.948,0,0,1,.948.948v5.666a.948.948,0,0,0,.948.951l6.636.018a.948.948,0,0,0,.948-.948V47.924L17.5,38.935a.722.722,0,0,0-.906,0Zm17.253,6.114L28.9,40.967V32.761a.711.711,0,0,0-.711-.711H24.867a.711.711,0,0,0-.711.711v4.3l-5.3-4.364a2.844,2.844,0,0,0-3.614,0l-15,12.35a.711.711,0,0,0-.095,1l1.511,1.837a.711.711,0,0,0,1,.1L16.6,36.506a.722.722,0,0,1,.906,0L31.437,47.983a.711.711,0,0,0,1-.095l1.511-1.837a.711.711,0,0,0-.1-1Z" transform="translate(0.015 -32.05)" fill="#b2b4b7"/>
</svg>
