<svg xmlns="http://www.w3.org/2000/svg" xmlns:xlink="http://www.w3.org/1999/xlink" width="546" height="546" viewBox="0 0 546 546">
  <defs>
    <clipPath id="clip-path">
      <rect id="사각형_1" data-name="사각형 1" width="546" height="546" transform="translate(4239 -2382)" fill="none" stroke="red" stroke-width="1"/>
    </clipPath>
  </defs>
  <g id="마스크_그룹_1" data-name="마스크 그룹 1" transform="translate(-4239 2382)" clip-path="url(#clip-path)">
    <rect id="사각형_2" data-name="사각형 2" width="344" height="49" rx="24.5" transform="translate(4408 -2325)" fill="#27c4ba"/>
    <rect id="사각형_8" data-name="사각형 8" width="98" height="98" rx="14" transform="translate(4272 -2350)" fill="#27c4ba"/>
    <g id="그룹_12" data-name="그룹 12" transform="translate(3)">
      <rect id="사각형_9" data-name="사각형 9" width="344" height="49" rx="24.5" transform="translate(4405 -2197)" fill="#27c4ba"/>
      <rect id="사각형_10" data-name="사각형 10" width="98" height="98" rx="14" transform="translate(4269 -2222)" fill="#27c4ba"/>
    </g>
    <g id="그룹_11" data-name="그룹 11" transform="translate(3)">
      <rect id="사각형_11" data-name="사각형 11" width="344" height="49" rx="24.5" transform="translate(4405 -2069)" fill="#27c4ba"/>
      <rect id="사각형_12" data-name="사각형 12" width="98" height="98" rx="14" transform="translate(4269 -2094)" fill="#27c4ba"/>
    </g>
    <g id="그룹_10" data-name="그룹 10" transform="translate(3)">
      <rect id="사각형_13" data-name="사각형 13" width="344" height="49" rx="24.5" transform="translate(4405 -1941)" fill="#27c4ba"/>
      <rect id="사각형_14" data-name="사각형 14" width="98" height="98" rx="14" transform="translate(4269 -1966)" fill="#27c4ba"/>
    </g>
    <g id="그룹_15" data-name="그룹 15" transform="translate(-1.661 -13.605)">
      <rect id="사각형_15" data-name="사각형 15" width="45" height="20" rx="10" transform="translate(4296.803 -2302.839) rotate(45)" fill="#fff"/>
      <rect id="사각형_16" data-name="사각형 16" width="67" height="20" rx="10" transform="translate(4362.523 -2304.253) rotate(135)" fill="#fff"/>
    </g>
  </g>
</svg>
