<svg xmlns="http://www.w3.org/2000/svg" xmlns:xlink="http://www.w3.org/1999/xlink" width="16" height="16" viewBox="0 0 16 16">
  <defs>
    <clipPath id="clip-path">
      <rect id="사각형_114" data-name="사각형 114" width="16" height="16" transform="translate(-259 806)" fill="#fff" stroke="#707070" stroke-width="1" opacity="0.5"/>
    </clipPath>
  </defs>
  <g id="마스크_그룹_18" data-name="마스크 그룹 18" transform="translate(259 -806)" clip-path="url(#clip-path)">
    <path id="edit-solid" d="M11.183,2.408l2.506,2.506a.272.272,0,0,1,0,.383L7.622,11.364l-2.578.286a.54.54,0,0,1-.6-.6l.286-2.578L10.8,2.408A.272.272,0,0,1,11.183,2.408Zm4.5-.636L14.328.417a1.086,1.086,0,0,0-1.533,0l-.983.983a.272.272,0,0,0,0,.383l2.506,2.506a.272.272,0,0,0,.383,0l.983-.983a1.086,1.086,0,0,0,0-1.533ZM10.667,9.714v2.828H1.778V3.653H8.161a.342.342,0,0,0,.236-.1L9.508,2.444a.333.333,0,0,0-.236-.569H1.333A1.334,1.334,0,0,0,0,3.208v9.778a1.334,1.334,0,0,0,1.333,1.333h9.778a1.334,1.334,0,0,0,1.333-1.333V8.6a.334.334,0,0,0-.569-.236L10.764,9.478A.342.342,0,0,0,10.667,9.714Z" transform="translate(-259 806.681)" fill="#fff"/>
  </g>
</svg>
