<svg xmlns="http://www.w3.org/2000/svg" xmlns:xlink="http://www.w3.org/1999/xlink" width="16" height="16" viewBox="0 0 16 16">
  <defs>
    <clipPath id="clip-path">
      <rect id="사각형_113" data-name="사각형 113" width="16" height="16" transform="translate(893 174)" fill="#fff" stroke="#707070" stroke-width="1" opacity="0.16"/>
    </clipPath>
  </defs>
  <g id="마스크_그룹_17" data-name="마스크 그룹 17" transform="translate(-893 -174)" clip-path="url(#clip-path)">
    <path id="trash-alt-solid" d="M1,14.5A1.5,1.5,0,0,0,2.5,16h9A1.5,1.5,0,0,0,13,14.5V4H1Zm8.5-8a.5.5,0,0,1,1,0v7a.5.5,0,0,1-1,0Zm-3,0a.5.5,0,1,1,1,0v7a.5.5,0,1,1-1,0Zm-3,0a.5.5,0,1,1,1,0v7a.5.5,0,1,1-1,0ZM13.5,1H9.75L9.456.415A.75.75,0,0,0,8.784,0H5.212a.741.741,0,0,0-.669.416L4.25,1H.5a.5.5,0,0,0-.5.5v1A.5.5,0,0,0,.5,3h13a.5.5,0,0,0,.5-.5v-1A.5.5,0,0,0,13.5,1Z" transform="translate(894 174)" fill="#fff"/>
  </g>
</svg>
