<svg xmlns="http://www.w3.org/2000/svg" xmlns:xlink="http://www.w3.org/1999/xlink" width="100" height="100" viewBox="0 0 100 100">
  <defs>
    <clipPath id="clip-path">
      <rect id="사각형_1" data-name="사각형 1" width="100" height="100" transform="translate(778 173)" fill="red" stroke="#707070" stroke-width="1"/>
    </clipPath>
  </defs>
  <g id="마스크_그룹_1" data-name="마스크 그룹 1" transform="translate(-778 -173)" clip-path="url(#clip-path)">
    <path id="gear-solid" d="M108.686,32.539a4.433,4.433,0,0,1-1.23,4.8L99,45.039a37.227,37.227,0,0,1,0,9.922l8.457,7.7a4.433,4.433,0,0,1,1.23,4.8,49.581,49.581,0,0,1-3.066,6.7l-.918,1.582a51.461,51.461,0,0,1-4.316,6.113A4.468,4.468,0,0,1,95.6,83.184L84.721,79.707a42.732,42.732,0,0,1-8.594,4.98L73.686,95.84a4.682,4.682,0,0,1-3.555,3.477,51.036,51.036,0,0,1-8.477.684,49.952,49.952,0,0,1-8.125-.684,4.682,4.682,0,0,1-3.555-3.477L47.534,84.688a38.388,38.388,0,0,1-8.594-4.98L28.069,83.184a4.459,4.459,0,0,1-4.787-1.328,51.251,51.251,0,0,1-4.318-6.113l-.914-1.582a48.714,48.714,0,0,1-3.082-6.7,4.437,4.437,0,0,1,1.24-4.8l8.449-7.7a37.89,37.89,0,0,1,0-9.922l-8.449-7.7a4.429,4.429,0,0,1-1.24-4.8,48.946,48.946,0,0,1,3.082-6.7l.912-1.582a50.6,50.6,0,0,1,4.32-6.1,4.436,4.436,0,0,1,4.787-1.33L38.94,20.293a37.561,37.561,0,0,1,8.594-4.975L49.975,4.166A4.431,4.431,0,0,1,53.53.686a50.6,50.6,0,0,1,16.6,0,4.431,4.431,0,0,1,3.555,3.48l2.441,11.152a41.706,41.706,0,0,1,8.594,4.975L95.6,16.824a4.444,4.444,0,0,1,4.785,1.33,50.567,50.567,0,0,1,4.316,6.1l.918,1.582a49.581,49.581,0,0,1,3.066,6.7ZM61.83,65.625a15.713,15.713,0,1,0-15.625-15.8A15.659,15.659,0,0,0,61.83,65.625Z" transform="translate(766.171 173)" fill="#fff"/>
  </g>
</svg>
