<svg xmlns="http://www.w3.org/2000/svg" xmlns:xlink="http://www.w3.org/1999/xlink" width="542" height="542" viewBox="0 0 542 542">
  <defs>
    <clipPath id="clip-path">
      <rect id="사각형_18" data-name="사각형 18" width="542" height="542" transform="translate(4979 -752)" fill="#fff" stroke="#707070" stroke-width="1" opacity="0.5"/>
    </clipPath>
  </defs>
  <g id="마스크_그룹_3" data-name="마스크 그룹 3" transform="translate(-4979 752)" clip-path="url(#clip-path)">
    <g id="stretching-exercises-svgrepo-com" transform="translate(5041.892 -752)">
      <g id="그룹_9" data-name="그룹 9" transform="translate(8.102 0)">
        <path id="패스_4" data-name="패스 4" d="M376.058.124c-86.892,7.658-151.012,51.03-188.391,113.73-25.05,31.4-75.09,127.276-93.289,177.465-33,62.411-61.772,136.669-84.29,203.61-13.765,40.936,48.042,67.642,61.886,26.522,16.84-50.083,37.186-104.232,60.177-154.482,22.816,51.065,46,101.963,70.893,152.055,19.294,38.886,77.351,4.784,58.127-33.97C235.542,433.49,211.736,381.1,188.28,328.539c.3-1.016.675-2.007.99-3.014a27.737,27.737,0,0,0,12.968.552q53.834-10.107,107.693-20.2c15.342-2.883,21.221-19.671,18.8-33.111-7.255-40.279-30.2-68.3-58.766-94.813-4.241-14.422-18.383-27.18-34.075-39.858,31.815-51.433,83.756-79.348,151.363-85.306C421.76,49.769,410.265-2.882,376.058.124ZM245.294,229.065c8.876,9.235,16.429,18.952,22.133,30.2q-26.049,4.889-52.107,9.77A294.718,294.718,0,0,1,245.294,229.065Z" transform="translate(-8.102 0)" fill="#27c4ba"/>
        <circle id="타원_2" data-name="타원 2" cx="46.219" cy="46.219" r="46.219" transform="translate(265.274 90.775)" fill="#27c4ba"/>
      </g>
    </g>
  </g>
</svg>
