<svg xmlns="http://www.w3.org/2000/svg" xmlns:xlink="http://www.w3.org/1999/xlink" width="542" height="542" viewBox="0 0 542 542">
  <defs>
    <clipPath id="clip-path">
      <rect id="사각형_19" data-name="사각형 19" width="542" height="542" transform="translate(5390 -791)" fill="#fff" stroke="#707070" stroke-width="1" opacity="0.5"/>
    </clipPath>
  </defs>
  <g id="마스크_그룹_4" data-name="마스크 그룹 4" transform="translate(-5390 791)" clip-path="url(#clip-path)">
    <g id="writing-letter-svgrepo-com" transform="translate(5396.659 -791)">
      <path id="패스_5" data-name="패스 5" d="M409.649,366.105a47,47,0,0,1-36.9,17.747H323.606l-11.1,14.289a47.228,47.228,0,1,1-74.588-57.952L448.7,68.909v-50.5A18.406,18.406,0,0,0,430.3,0H26.477a18.407,18.407,0,0,0-18.4,18.406V523.6a18.4,18.4,0,0,0,18.4,18.4H430.3a18.4,18.4,0,0,0,18.4-18.4V317.236ZM93.78,104.715H194.735a14.722,14.722,0,0,1,0,29.443H93.78a14.722,14.722,0,1,1,0-29.443Zm0,67.365H307.259a14.723,14.723,0,0,1,0,29.447H93.78a14.723,14.723,0,1,1,0-29.447ZM194.735,302.566H93.78a14.723,14.723,0,1,1,0-29.447H194.735a14.723,14.723,0,0,1,0,29.447Z" transform="translate(0)" fill="#27c4ba"/>
      <path id="패스_6" data-name="패스 6" d="M151.582,356.794a17.778,17.778,0,0,0,24.952-3.13l19.952-25.673h63.553a17.765,17.765,0,0,0,13.886-6.679L404,158.57a17.786,17.786,0,0,0,3.892-11.106V49.812A17.78,17.78,0,0,0,376.072,38.9L148.454,331.84A17.781,17.781,0,0,0,151.582,356.794Z" transform="translate(112.714 26.416)" fill="#27c4ba"/>
    </g>
  </g>
</svg>
