<svg xmlns="http://www.w3.org/2000/svg" width="165.597" height="165.597" viewBox="0 0 165.597 165.597">
  <path id="floppy-disk-solid" d="M160.089,67.892,129.077,36.879C126.526,34.336,120.908,32,116.842,32H23.657A23.655,23.655,0,0,0,0,55.657V173.94A23.655,23.655,0,0,0,23.657,197.6H141.94A23.655,23.655,0,0,0,165.6,173.94V80.755A20.553,20.553,0,0,0,160.089,67.892ZM82.8,173.94a23.657,23.657,0,1,1,23.657-23.657A23.66,23.66,0,0,1,82.8,173.94Zm35.485-76.884a5.932,5.932,0,0,1-5.914,5.914h-82.8a5.922,5.922,0,0,1-5.914-5.914V61.571a5.922,5.922,0,0,1,5.914-5.914h82.8a5.932,5.932,0,0,1,5.914,5.914Z" transform="translate(0 -32)" fill="#fff"/>
</svg>
