<svg xmlns="http://www.w3.org/2000/svg" width="60" height="60" viewBox="0 0 60 60">
  <g id="그룹_142" data-name="그룹 142" transform="translate(2517 -689)">
    <circle id="타원_22" data-name="타원 22" cx="30" cy="30" r="30" transform="translate(-2517 689)" fill="#eee"/>
    <path id="user-solid" d="M16.349,18.684A9.342,9.342,0,1,0,7.007,9.342,9.341,9.341,0,0,0,16.349,18.684Zm6.539,2.336H21.669a12.7,12.7,0,0,1-10.641,0H9.809A9.812,9.812,0,0,0,0,30.829v3.036a3.5,3.5,0,0,0,3.5,3.5H29.194a3.5,3.5,0,0,0,3.5-3.5V30.829A9.812,9.812,0,0,0,22.888,21.02Z" transform="translate(-2503.349 700.316)" fill="#788390"/>
  </g>
</svg>
