<svg xmlns="http://www.w3.org/2000/svg" xmlns:xlink="http://www.w3.org/1999/xlink" width="461" height="461" viewBox="0 0 461 461">
  <defs>
    <clipPath id="clip-path">
      <rect id="사각형_3" data-name="사각형 3" width="461" height="461" transform="translate(3298 -145)" fill="#fff" stroke="#707070" stroke-width="1"/>
    </clipPath>
  </defs>
  <g id="마스크_그룹_2" data-name="마스크 그룹 2" transform="translate(-3298 145)" clip-path="url(#clip-path)">
    <path id="clipboard-list-solid" d="M302.531,57.625H254.018C242.115,24.13,210.421,0,172.875,0A86.173,86.173,0,0,0,91.75,57.625H43.219A43.218,43.218,0,0,0,0,100.844V417.781A43.23,43.23,0,0,0,43.219,461H302.531a43.218,43.218,0,0,0,43.219-43.219V100.844A43.218,43.218,0,0,0,302.531,57.625ZM86.438,352.953a21.609,21.609,0,1,1,21.609-21.609A21.615,21.615,0,0,1,86.438,352.953Zm0-86.437a21.609,21.609,0,1,1,21.609-21.609A21.615,21.615,0,0,1,86.438,266.516ZM172.875,57.625a28.813,28.813,0,1,1-28.812,28.813A28.816,28.816,0,0,1,172.875,57.625ZM273.719,345.75H158.469a14.406,14.406,0,0,1,0-28.812h115.25a14.406,14.406,0,0,1,0,28.813Zm0-86.437H158.469a14.406,14.406,0,0,1,0-28.812h115.25a14.406,14.406,0,0,1,0,28.813Z" transform="translate(3356 -145)" fill="#27c4ba"/>
  </g>
</svg>
