<svg xmlns="http://www.w3.org/2000/svg" xmlns:xlink="http://www.w3.org/1999/xlink" width="542" height="542" viewBox="0 0 542 542">
  <defs>
    <clipPath id="clip-path">
      <rect id="사각형_17" data-name="사각형 17" width="542" height="542" transform="translate(4171 -791)" fill="#fff" stroke="#707070" stroke-width="1" opacity="0.23"/>
    </clipPath>
  </defs>
  <g id="마스크_그룹_2" data-name="마스크 그룹 2" transform="translate(-4171 791)" clip-path="url(#clip-path)">
    <path id="person-walking-solid" d="M271.013,50.815A50.815,50.815,0,1,1,220.2,0,50.821,50.821,0,0,1,271.013,50.815ZM133.919,210.988c-.953.423-2.011.847-2.964,1.27l-11.645,5.187a67.7,67.7,0,0,0-35.443,36.735l-1.6,4.023a33.882,33.882,0,0,1-62.9-25.2l1.6-4.023a135.892,135.892,0,0,1,70.781-73.47l11.645-5.187A169.89,169.89,0,0,1,173.3,135.507a116.812,116.812,0,0,1,107.876,71.882l15.35,38.958,23.5,11.328a33.851,33.851,0,1,1-30.277,60.555l-28.266-14.08a51.008,51.008,0,0,1-24.137-25.937l-10.163-24.349L206.753,323.2l52.4,57.273a50.241,50.241,0,0,1,11.857,22.02l24.349,97.4A33.773,33.773,0,0,1,270.8,540.968c-18.209,4.552-36.629-6.458-42.028-24.561L206.33,423.035l-74.74-81.622c-15.668-17.044-22.443-40.864-15.562-63.2ZM72.761,421.341l26.424-66.059a101.423,101.423,0,0,0,7.421,9.1l43.087,47-15.35,38.323a48.791,48.791,0,0,1-11.222,17.044L57.834,532.075A33.857,33.857,0,1,1,9.922,484.224Z" transform="translate(4272.625 -791)" fill="#27c4ba"/>
  </g>
</svg>
