<svg xmlns="http://www.w3.org/2000/svg" xmlns:xlink="http://www.w3.org/1999/xlink" width="182" height="182" viewBox="0 0 182 182">
  <defs>
    <clipPath id="clip-path">
      <rect id="사각형_1" data-name="사각형 1" width="182" height="182" transform="translate(19132 -26)" fill="#fff" stroke="#707070" stroke-width="1"/>
    </clipPath>
  </defs>
  <g id="마스크_그룹_1" data-name="마스크 그룹 1" transform="translate(-19132 26)" clip-path="url(#clip-path)">
    <path id="패스_1" data-name="패스 1" d="M83.208,182.011c13.126,0,23.765-10.189,23.763-22.751H59.443c0,12.567,10.642,22.751,23.769,22.751Zm80.01-53.219c-7.177-7.38-20.605-18.481-20.605-54.847,0-27.621-20.237-49.732-47.525-55.157V11.379a11.891,11.891,0,0,0-23.759,0v7.408C44.041,24.212,23.8,46.323,23.8,73.944c0,36.366-13.428,47.468-20.605,54.847A10.854,10.854,0,0,0,0,136.509a11.144,11.144,0,0,0,3.5,8.053,12.176,12.176,0,0,0,8.426,3.322H154.492a12.174,12.174,0,0,0,8.427-3.321,11.142,11.142,0,0,0,3.5-8.054,10.848,10.848,0,0,0-3.2-7.718Z" transform="translate(19140 -26.011)" fill="#27c4ba"/>
  </g>
</svg>
