<svg xmlns="http://www.w3.org/2000/svg" width="151" height="151" viewBox="0 0 151 151">
  <g id="그룹_1" data-name="그룹 1" transform="translate(-861 503)">
    <circle id="타원_1" data-name="타원 1" cx="75.5" cy="75.5" r="75.5" transform="translate(861 -503)" fill="#27c4ba" opacity="0.2"/>
    <path id="address-card-solid" d="M68.721,32H8.59A8.589,8.589,0,0,0,0,40.59v42.95a8.589,8.589,0,0,0,8.59,8.59H68.721a8.589,8.589,0,0,0,8.59-8.59V40.59A8.594,8.594,0,0,0,68.721,32Zm-45.1,12.885a8.59,8.59,0,1,1-8.59,8.59A8.589,8.589,0,0,1,23.623,44.885Zm12.885,34.36H10.738A2.15,2.15,0,0,1,8.59,77.1,10.736,10.736,0,0,1,19.328,66.36h8.59A10.738,10.738,0,0,1,38.655,77.1,2.154,2.154,0,0,1,36.508,79.246Zm30.065-8.59H49.393a2.148,2.148,0,0,1,0-4.3h17.18a2.148,2.148,0,1,1,0,4.3Zm0-8.59H49.393a2.148,2.148,0,0,1,0-4.3h17.18a2.148,2.148,0,1,1,0,4.3Zm0-8.59H49.393a2.148,2.148,0,0,1,0-4.3h17.18a2.148,2.148,0,1,1,0,4.3Z" transform="translate(897.845 -489.565)" fill="#27c4ba"/>
  </g>
</svg>
